<?xml version="1.0" encoding="UTF-8"?>
<svg version="1.1" viewBox="0 0 1024 1024" xmlns="http://www.w3.org/2000/svg">
 <g transform="translate(0 -28.362)">
  <path d="m535.86 295.49s80.793-85.103 135.21-107.28c54.42-22.181 191.31-25.803 191.31-25.803v552.75s-124.42 6.3375-178.84 28.519c-54.42 22.181-147.68 104.57-147.68 104.57z" fill="#d1c4e9"/>
  <path d="m930.95 203.13s-21.087 0.59843-49.863 2.6023v531.16s-124.43 6.314-178.85 28.495c-28.323 11.544-95.127 50.237-125.87 74.295l-15.582 49.281s105.73-57.937 160.15-80.118 210.01-52.957 210.01-52.957z" fill="#b39ddb"/>
  <path d="m993.28 249.3s-15.261 0.44531-37.397 1.7891v526.54s-124.43 6.314-178.85 28.495c-32.325 13.175-106.29 39.396-138.33 65.171l-24.93 31.245s146.24-49.773 200.66-71.955c54.42-22.181 178.85-28.528 178.85-28.528z" fill="#7359a6"/>
  <path d="m488.44 295.49s-80.793-85.103-135.21-107.28c-54.42-22.181-191.31-25.803-191.31-25.803v552.75s124.42 6.3375 178.84 28.519c54.42 22.181 147.68 104.57 147.68 104.57z" fill="#d1c4e9"/>
  <path d="m93.342 203.13s21.087 0.59843 49.863 2.6023v531.16s124.43 6.314 178.85 28.495c28.323 11.544 95.127 50.237 125.87 74.295l15.582 49.281s-105.73-57.937-160.15-80.118c-54.42-22.18-210.01-52.95-210.01-52.95z" fill="#b39ddb"/>
  <path d="m31.017 249.3s15.261 0.44531 37.397 1.7891v526.54s124.43 6.314 178.85 28.495c32.325 13.175 106.29 39.396 138.33 65.171l24.93 31.245s-146.24-49.773-200.66-71.955c-54.41-22.17-178.84-28.52-178.84-28.52z" fill="#7359a6"/>
 </g>
</svg>
