<?xml version="1.0" encoding="UTF-8"?>
<!DOCTYPE svg  PUBLIC '-//W3C//DTD SVG 1.1//EN'  'http://www.w3.org/Graphics/SVG/1.1/DTD/svg11.dtd'>
<svg enable-background="new 0 0 94.4 114.35" version="1.1" viewBox="0 0 94.4 114.35" xml:space="preserve" xmlns="http://www.w3.org/2000/svg" xmlns:xlink="http://www.w3.org/1999/xlink">
<symbol id="cm" viewBox="0 -11.033 28.606 11.089">
			<path d="m28.05-4c0.067-0.433 0.15-1.083 0.25-1.95 0.233-1.133 0.333-1.933 0.3-2.4-0.067-0.967-0.533-1.45-1.4-1.45-0.367 0-0.75-0.133-1.15-0.4-0.667-0.433-1.017-0.65-1.05-0.65-0.8-0.367-1.533-0.183-2.2 0.55-0.867 1.033-1.466 1.633-1.8 1.8-0.433 0.2-0.817 0.283-1.15 0.25l-0.7-0.15c-0.267-0.067-0.483-0.067-0.65 0-0.267 0.333-0.517 0.533-0.75 0.6-0.367-0.1-0.617-0.167-0.75-0.2-1.2-0.333-2.117-0.383-2.75-0.15-0.333 0.133-0.567 0.217-0.7 0.25-0.3 0.1-0.55 0.117-0.75 0.05-0.2-0.033-0.667-0.267-1.4-0.7-0.6-0.333-1.117-0.434-1.55-0.3-0.167 0.067-0.467 0.283-0.9 0.65-0.367 0.267-0.7 0.383-1 0.35-0.067 0-0.434-0.217-1.1-0.65-0.5-0.3-1.05-0.317-1.65-0.05-0.1 0.033-0.35 0.433-0.75 1.2-0.333 0.6-0.65 0.783-0.95 0.55l-0.75-0.65c-0.6-0.566-1.117-0.633-1.55-0.2-0.167 0.133-0.3 0.383-0.4 0.75-0.133 0.367-0.25 0.617-0.35 0.75-0.233 0.167-0.383 0.317-0.45 0.45 0 0.034 0.05 0.317 0.15 0.85 0.434 1.533 1.033 2.783 1.8 3.75 1.167 1.433 5.817 1.533 13.95 0.3 8-1.233 12.05-2.3 12.15-3.2z" clip-rule="evenodd" fill="#FBD9C3" fill-rule="evenodd"/>
</symbol>
<symbol id="cn" viewBox="0.063 -29.76 88.838 29.785">
			<path d="m87.4-16.1c1.033-1.2 1.533-3.05 1.5-5.55 0-2.7-0.7-4.817-2.1-6.35-0.533-0.567-1.383-0.7-2.55-0.4-1.467 0.367-2.383 0.517-2.75 0.45-0.333-0.066-1.017-0.466-2.05-1.2-0.833-0.533-1.583-0.717-2.25-0.55-0.5 0.133-1.034 0.617-1.6 1.45-0.567 0.933-0.95 1.567-1.15 1.9-0.567 1.1-1.034 1.917-1.4 2.45-0.6 0.967-1.25 1.633-1.95 2-1.167 0.566-2.533-0.083-4.1-1.95-1.6-1.933-3.017-2.667-4.25-2.2-0.367 0.167-0.783 0.617-1.25 1.35-0.333 0.534-0.833 0.75-1.5 0.65-0.733-0.1-1.333-0.017-1.8 0.25-0.1 0.066-0.567 0.5-1.4 1.3-1.2 1.167-2.75 1.367-4.65 0.6-2.7-1.067-4.3-1.6-4.8-1.6-0.567 0.067-1.017 0.083-1.35 0.05-0.467-0.1-0.933-0.3-1.4-0.6-0.567-0.4-1-0.7-1.3-0.9-1.033-0.733-1.833-1.183-2.4-1.35-0.933-0.3-1.783-0.15-2.55 0.45-0.4 0.434-0.717 0.75-0.95 0.95-0.433 0.333-0.85 0.483-1.25 0.45-0.333-0.033-0.767-0.267-1.3-0.7-0.633-0.467-1.067-0.75-1.3-0.85-1.333-0.567-2.633-0.6-3.9-0.1-0.9 0.333-2 1.083-3.3 2.25-0.867 0.767-1.333 1.184-1.4 1.25-0.6 0.434-1.167 0.684-1.7 0.75-0.533 0.1-1.083-0.033-1.65-0.4-0.667-0.433-1.167-0.667-1.5-0.7-0.233 0-0.467 0.083-0.7 0.25s-0.45 0.25-0.65 0.25-0.633-0.283-1.3-0.85l-1.2-1.2c-0.467-0.433-0.933-0.717-1.4-0.85-1.233-0.367-2.184-0.183-2.85 0.55-0.333 0.5-0.6 0.883-0.8 1.15-0.367 0.433-0.783 0.65-1.25 0.65-0.767 0-1.5-0.7-2.2-2.1-0.367-0.733-0.667-1.25-0.9-1.55-0.434-0.533-0.934-0.833-1.5-0.9-0.6-0.067-1.133 0.05-1.6 0.35-1 0.534-1.733 1.167-2.2 1.9-0.2 0.3-0.466 1-0.8 2.1-1.667 4.9-0.3 11.3 4.1 19.2 0.767 1.367 2.267 2.35 4.5 2.95 1.3 0.367 3.133 0.65 5.5 0.85 5.133 0.4 10.917 0.267 17.35-0.4 3.8-0.4 9.533-1.217 17.2-2.45 1.967-0.3 4.6-0.883 7.9-1.75 3.8-0.967 6.434-1.6 7.9-1.9 11.367-2.167 18.767-5.3 22.2-9.4z" clip-rule="evenodd" fill="#FBD9C3" fill-rule="evenodd"/>
</symbol>
<symbol id="co" viewBox="0.015 -11.515 21.241 11.515">
			<linearGradient id="dr" x1="19616" x2="19639" y1="-7644.5" y2="-7644.5" gradientTransform="matrix(-.6767 .7362 -.7362 -.6767 7668.5 -19635)" gradientUnits="userSpaceOnUse">
			<stop offset="0"/>
			<stop stop-color="#fff" offset="1"/>
		</linearGradient>
		<path d="m20.45-3.3c0.733-0.934 0.966-1.75 0.7-2.45-0.267-0.8-1.083-1.3-2.45-1.5-0.934-0.167-2.983-0.433-6.15-0.8-2.333-0.3-4.117-0.6-5.35-0.9-0.467-0.1-1.934-0.716-4.4-1.85-1.767-0.767-2.683-0.917-2.75-0.45-0.133 0.767 0.117 1.833 0.75 3.2 0.767 1.6 1.817 2.966 3.15 4.1 1.367 1.167 2.983 2.133 4.85 2.9 1.633 0.7 2.967 1.05 4 1.05 3.367 0 5.917-1.1 7.65-3.3z" clip-rule="evenodd" fill="url(#dr)" fill-rule="evenodd"/>
</symbol>
<symbol id="cp" viewBox="-0.193 -4.155 8.919 4.191">
		<path d="m6.85-1.85c-2.467-1.433-4.483-2.2-6.05-2.3-1.5-0.067-1.3 0.566 0.6 1.9s3.783 2.083 5.65 2.25c2.3 0.2 2.233-0.417-0.2-1.85z" clip-rule="evenodd" fill="#459691" fill-rule="evenodd"/>
</symbol>
<symbol id="cq" viewBox="0.007 -38.576 47.846 38.702">
			<linearGradient id="ec" x1="19029" x2="19080" y1="-11671" y2="-11671" gradientTransform="matrix(-.8908 .4545 -.4545 -.8908 11704 -19081)" gradientUnits="userSpaceOnUse">
			<stop offset="0"/>
			<stop stop-color="#fff" offset="1"/>
		</linearGradient>
		<path d="m47.4-2.05c0.833-1.2 0.517-2.7-0.95-4.5-1.5-1.833-3.967-3.65-7.4-5.45-2.533-1.333-7.2-3.6-14-6.8-5.066-2.367-9-4.45-11.8-6.25-1.7-1.1-4.267-4.083-7.7-8.95-2.7-3.8-4.333-5.233-4.9-4.3-0.933 1.433-0.85 3.933 0.25 7.5 1.067 3.566 2.917 7.483 5.55 11.75 2.4 3.933 6.017 7.716 10.85 11.35 4.267 3.233 7.767 5.184 10.5 5.85 11.067 2.7 17.6 2.633 19.6-0.2z" clip-rule="evenodd" fill="url(#ec)" fill-rule="evenodd"/>
</symbol>
<symbol id="cr" viewBox="0.01 -1.969 2.775 1.975">
		<path d="m1.45-0.05c1.033-0.2 1.466-0.617 1.3-1.25s-0.717-0.817-1.65-0.55c-0.867 0.233-1.217 0.633-1.05 1.2s0.633 0.767 1.4 0.6z" clip-rule="evenodd" fill="#499F9F" fill-rule="evenodd"/>
</symbol>
<symbol id="cs" viewBox="-0.001 -2.778 3.884 2.805">
		<path d="m2.3-0.25c1.667-1.1 2.017-1.867 1.05-2.3-1-0.433-1.933-0.25-2.8 0.55-0.7 0.633-0.733 1.183-0.1 1.65 0.6 0.467 1.217 0.5 1.85 0.1z" clip-rule="evenodd" fill="#499F9F" fill-rule="evenodd"/>
</symbol>
<symbol id="ct" viewBox="-0.054 -1.952 4.568 1.954">
		<path d="m3.5-0.15c1.3-0.4 1.35-0.867 0.15-1.4-1.2-0.5-2.25-0.534-3.15-0.1-0.8 0.4-0.733 0.816 0.2 1.25 0.933 0.433 1.867 0.517 2.8 0.25z" clip-rule="evenodd" fill="#499F9F" fill-rule="evenodd"/>
</symbol>
<symbol id="cu" viewBox="-0.028 -2.508 2.401 2.48">
		<path d="m1.55-0.1c0.833 0.233 1.034-0.1 0.6-1-0.467-0.867-1-1.333-1.6-1.4s-0.733 0.283-0.4 1.05c0.3 0.733 0.767 1.183 1.4 1.35z" clip-rule="evenodd" fill="#499F9F" fill-rule="evenodd"/>
</symbol>
<symbol id="cv" viewBox="-0.095 -5.479 6.257 5.48">
		<path d="m5.45 0c1.2-0.033 0.883-1-0.95-2.9-1.867-1.9-3.25-2.75-4.15-2.55-0.867 0.233-0.467 1.2 1.2 2.9 1.633 1.733 2.933 2.583 3.9 2.55z" clip-rule="evenodd" fill="#499F9F" fill-rule="evenodd"/>
</symbol>
<symbol id="cw" viewBox="0.05 -2.738 9.401 2.738">
		<path d="m3.85-0.2c3.767-0.533 5.633-1.183 5.6-1.95-0.034-0.8-1.9-0.783-5.6 0.05-2.533 0.567-3.8 1.117-3.8 1.65 0 0.5 1.267 0.583 3.8 0.25z" clip-rule="evenodd" fill="#459691" fill-rule="evenodd"/>
</symbol>
<symbol id="cx" viewBox="-0.031 -5.266 7.631 5.337">
		<path d="m4.9-0.45c2.4-0.767 3.2-1.95 2.4-3.55-0.767-1.6-2.467-1.683-5.1-0.25-1.967 1.067-2.633 2.167-2 3.3 0.633 1.167 2.2 1.333 4.7 0.5z" clip-rule="evenodd" fill="#459691" fill-rule="evenodd"/>
</symbol>
<symbol id="cy" viewBox="-0.032 -1.894 4.37 1.944">
		<path d="m3.4-0.35c1.233-0.767 1.25-1.25 0.05-1.45-1.233-0.233-2.25-0.033-3.05 0.6-0.7 0.534-0.55 0.917 0.45 1.15 1.033 0.2 1.883 0.1 2.55-0.3z" clip-rule="evenodd" fill="#499F9F" fill-rule="evenodd"/>
</symbol>
<symbol id="cz" viewBox="-0.017 -4.174 7.307 4.174">
		<path d="m3.4 0c1.733 0 2.917-0.433 3.55-1.3s0.383-1.6-0.75-2.2c-1.033-0.533-2.2-0.75-3.5-0.65-1.1 0.1-1.934 0.367-2.5 0.8-0.433 0.367-0.217 1.017 0.65 1.95 0.9 0.933 1.75 1.4 2.55 1.4z" clip-rule="evenodd" fill="#499F9F" fill-rule="evenodd"/>
</symbol>
<symbol id="da" viewBox="-0.028 -3.053 8.185 3.053">
		<path d="m4.15 0c1.033 0 1.983-0.25 2.85-0.75 0.833-0.5 1.217-1.033 1.15-1.6-0.033-0.5-0.933-0.733-2.7-0.7-1.667 0.033-3.183 0.25-4.55 0.65-1.167 0.3-1.233 0.783-0.2 1.45 1.033 0.633 2.183 0.95 3.45 0.95z" clip-rule="evenodd" fill="#499F9F" fill-rule="evenodd"/>
</symbol>
<symbol id="db" viewBox="-0.047 -5.74 9.451 5.788">
		<path d="m9.35-0.45c0.2-0.467-0.15-1.15-1.05-2.05-2.267-2.4-4.517-3.467-6.75-3.2-1.967 0.233-2.117 1.1-0.45 2.6 1.6 1.434 3.417 2.4 5.45 2.9 1.633 0.4 2.567 0.317 2.8-0.25z" clip-rule="evenodd" fill="#499F9F" fill-rule="evenodd"/>
</symbol>
<symbol id="dc" viewBox="-0.045 -2.416 3.058 2.499">
		<path d="m1.85-0.15c1.066-0.6 1.4-1.2 1-1.8-0.433-0.567-1.117-0.617-2.05-0.15-0.833 0.467-1.05 1-0.65 1.6 0.433 0.633 1 0.75 1.7 0.35z" clip-rule="evenodd" fill="#499F9F" fill-rule="evenodd"/>
</symbol>
<symbol id="dd" viewBox="-0.025 -3.073 4.047 3.085">
		<path d="m3.8-1.6c-0.633-1.2-1.533-1.667-2.7-1.4-1 0.233-1.333 0.783-1 1.65 0.367 0.867 0.983 1.317 1.85 1.35 1.833 0.1 2.45-0.433 1.85-1.6z" clip-rule="evenodd" fill="#499F9F" fill-rule="evenodd"/>
</symbol>
<symbol id="de" viewBox="-0.006 -2.375 2.719 2.425">
		<path d="m1.15-0.05c1.133-0.5 1.65-1.05 1.55-1.65-0.133-0.6-0.683-0.8-1.65-0.6-0.867 0.2-1.2 0.683-1 1.45 0.167 0.8 0.533 1.067 1.1 0.8z" clip-rule="evenodd" fill="#499F9F" fill-rule="evenodd"/>
</symbol>
<symbol id="df" viewBox="-0.025 -4.216 4.147 4.232">
		<path d="m3.45-2.1c-1-1.533-1.95-2.233-2.85-2.1-0.833 0.133-0.833 0.833 0 2.1 0.833 1.3 1.667 2 2.5 2.1 1.233 0.133 1.35-0.567 0.35-2.1z" clip-rule="evenodd" fill="#499F9F" fill-rule="evenodd"/>
</symbol>
<symbol id="dp" viewBox="-0.023 -3.408 4.631 3.372">
		<path d="m2.4-0.05c1.333-0.067 2.067-0.7 2.2-1.9 0.1-1.167-0.684-1.633-2.35-1.4s-2.417 0.867-2.25 1.9c0.2 1.033 1 1.5 2.4 1.4z" clip-rule="evenodd" fill="#459691" fill-rule="evenodd"/>
</symbol>
<symbol id="eq" viewBox="-0.163 -5.152 13.281 5.235">
		<path d="m9.4-0.5c2.3-0.867 3.533-1.667 3.7-2.4 0.133-0.667-0.5-1.2-1.9-1.6-3.434-1-6.6-0.85-9.5 0.45-2.534 1.1-2.483 2.183 0.15 3.25s5.15 1.167 7.55 0.3z" clip-rule="evenodd" fill="#459691" fill-rule="evenodd"/>
</symbol>
<symbol id="fr" viewBox="-0.105 -3.668 8.797 3.684">
		<path d="m5.75-0.05c3.333-0.4 3.833-1.184 1.5-2.35-2.4-1.233-4.45-1.567-6.15-1-1.5 0.5-1.6 1.233-0.3 2.2 1.333 1 2.983 1.383 4.95 1.15z" clip-rule="evenodd" fill="#459691" fill-rule="evenodd"/>
</symbol>
		<radialGradient id="en" cx="54.75" cy="71.65" r="29" gradientTransform="matrix(-1 0 0 -.7974 109.5 128.79)" gradientUnits="userSpaceOnUse">
		<stop stop-color="#228B8F" offset=".4235"/>
		<stop stop-color="#258D91" offset=".651"/>
		<stop stop-color="#309396" offset=".8471"/>
		<stop stop-color="#3E9A9D" offset="1"/>
	</radialGradient>
	<path d="m37.6 98.2c0.233-1.5 1.066-3.25 2.5-5.25 1.733-2.134 2.917-3.684 3.55-4.65 0.5-0.733 1.4-2.316 2.7-4.75 1.1-2 2.1-3.533 3-4.6 1.667-2 3.233-3.15 4.7-3.45 1.434-0.333 3.134 0.1 5.101 1.3 1.133 0.667 2.25 1.917 3.35 3.75 0.634 1 1.5 2.5 2.6 4.5 2.233 3.5 4 6.767 5.301 9.8 0.366 0.801 0.75 1.784 1.149 2.95 0.167 0.467 0.434 1.184 0.8 2.15 0.233 0.866 0.334 1.633 0.301 2.3-0.634 0.233-1.434 0.283-2.4 0.15-1.1-0.233-1.9-0.384-2.4-0.45-0.833-0.134-2.033-0.233-3.6-0.3-1.7-0.067-2.917-0.15-3.65-0.25-0.433-0.067-2.05-0.434-4.85-1.101-2.066-0.5-3.7-0.7-4.9-0.6-0.6 0.066-1.483 0.233-2.649 0.5-1.2 0.267-2.1 0.416-2.7 0.45-2.267 0.233-3.9 0.3-4.9 0.199-2.27-0.2-3.27-1.083-3.003-2.65z" clip-rule="evenodd" fill="url(#en)" fill-rule="evenodd"/>
		<use transform="matrix(1 0 0 -1 48.95 77.3)" x="-0.025" y="-4.216" width="4.147" height="4.232" enable-background="new" opacity=".1914" xlink:href="#df"/>
		<use transform="matrix(1 0 0 -1 55.65 76.7)" x="-0.006" y="-2.375" width="2.719" height="2.425" enable-background="new" opacity=".1914" xlink:href="#de"/>
		<use transform="matrix(1 0 0 -1 50.35 81.75)" x="-0.025" y="-3.073" width="4.047" height="3.085" enable-background="new" opacity=".1914" xlink:href="#dd"/>
		<use transform="matrix(1 0 0 -1 55.75 81.4)" x="-0.045" y="-2.416" width="3.058" height="2.499" enable-background="new" opacity=".1914" xlink:href="#dc"/>
		<radialGradient id="ez" cx="41" cy="79.25" r="61.725" gradientTransform="matrix(1 0 0 -.4583 0 115.57)" gradientUnits="userSpaceOnUse">
		<stop stop-color="#228B8F" offset=".4235"/>
		<stop stop-color="#258D91" offset=".651"/>
		<stop stop-color="#309396" offset=".8471"/>
		<stop stop-color="#3E9A9D" offset="1"/>
	</radialGradient>
	<path d="m40 89.25c1.867 0.967 4.033 1.184 6.5 0.65 3.6-0.767 5.8-1.15 6.6-1.15 1.567 0.033 2.934 0.45 4.101 1.25 0.833 0.533 1.8 1.483 2.899 2.85 1 1.233 1.733 2.051 2.2 2.45 1 0.867 2.05 1.384 3.15 1.55 0.533 0.067 1.783-0.033 3.75-0.3 1.434-0.2 2.616-0.017 3.55 0.55 2.233 1.4 4.283 3.367 6.15 5.9 0.966 1.267 1.483 2.116 1.55 2.55 0.133 0.8-0.566 1.25-2.101 1.351-1.333 0.1-2.949 0.116-4.85 0.05-2.2-0.101-3.833-0.167-4.9-0.2-7.3-0.066-12.767-0.2-16.399-0.4-1.5-0.066-3.7 0.051-6.6 0.351-2.967 0.333-5.2 0.467-6.7 0.399-7.2-0.267-12.617-0.517-16.25-0.75-6.267-0.366-11.683-0.933-16.25-1.699-4.7-0.9-6.816-1.9-6.35-3 1.567-3.867 4.75-7.633 9.55-11.3 6.5-5.033 12.333-7.616 17.5-7.75 2.3-0.033 4.633 0.784 7 2.45 1.3 0.9 3.267 2.3 5.9 4.2z" clip-rule="evenodd" fill="url(#ez)" fill-rule="evenodd"/>
		<use transform="matrix(1 0 0 -1 13.8 84.85)" x="-0.047" y="-5.74" width="9.451" height="5.788" enable-background="new" opacity=".1914" xlink:href="#db"/>
		<use transform="matrix(1 0 0 -1 24.3 83.4)" x="-0.028" y="-3.053" width="8.185" height="3.053" enable-background="new" opacity=".1914" xlink:href="#da"/>
		<use transform="matrix(1 0 0 -1 21.4 86.9)" x="-0.017" y="-4.174" width="7.307" height="4.174" enable-background="new" opacity=".1914" xlink:href="#cz"/>
		<use transform="matrix(1 0 0 -1 31.3 87.45)" x="-0.032" y="-1.894" width="4.37" height="1.944" enable-background="new" opacity=".1914" xlink:href="#cy"/>
		<use transform="matrix(1 0 0 -1 5.5 90.8)" x="-0.095" y="-5.479" width="6.257" height="5.48" enable-background="new" opacity=".1914" xlink:href="#cv"/>
		<use transform="matrix(1 0 0 -1 11.5 91.9)" x="-0.028" y="-2.508" width="2.401" height="2.48" enable-background="new" opacity=".1914" xlink:href="#cu"/>
		<use transform="matrix(1 0 0 -1 49.1 88.9)" x="-0.054" y="-1.952" width="4.568" height="1.954" enable-background="new" opacity=".1914" xlink:href="#ct"/>
		<use transform="matrix(1 0 0 -1 54 90.15)" x="-0.001" y="-2.778" width="3.884" height="2.805" enable-background="new" opacity=".1914" xlink:href="#cs"/>
		<use transform="matrix(1 0 0 -1 51.75 92.2)" x="0.01" y="-1.969" width="2.775" height="1.975" enable-background="new" opacity=".1914" xlink:href="#cr"/>
		<linearGradient id="fk" x1="73.765" x2="89.586" y1="-66.411" y2="-66.411" gradientTransform="matrix(-.1469 .9891 -.9891 -.1469 -.00023811 -.0002661)" gradientUnits="userSpaceOnUse">
		<stop stop-color="#242224" offset="0"/>
		<stop stop-color="#27252E" offset=".2118"/>
		<stop stop-color="#302E49" offset=".5765"/>
		<stop stop-color="#32304E" offset=".6353"/>
		<stop stop-color="#617D84" offset="1"/>
	</linearGradient>
	<path d="m53.4 86.6c0.066-0.333 0.283-0.666 0.649-1 0.367-0.333 0.75-0.517 1.15-0.55 0.566-0.033 1.116 0.233 1.649 0.8-0.1-0.033-0.233-0.05-0.399-0.05-0.334-0.033-0.601-0.017-0.8 0.05-0.233 0.101-0.467 0.334-0.7 0.7-0.101 0.2-0.184 0.384-0.25 0.55l1.05-0.5c0.467-0.199 0.917-0.166 1.35 0.101 0.5 0.3 0.784 0.866 0.851 1.7 0.1 1.233-0.134 2.1-0.7 2.6 0.066-0.134 0.066-0.4 0-0.8-0.1-0.434-0.217-0.767-0.35-1-0.134-0.334-0.267-0.584-0.4-0.75-0.2-0.267-0.483-0.351-0.85-0.25-0.367 0.066-0.634 0.399-0.801 1-0.1 0.3-0.166 0.583-0.199 0.85 0.033-0.1 0.116-0.217 0.25-0.35 0.199-0.233 0.466-0.367 0.8-0.4 0.533-0.033 0.833 0.334 0.899 1.101-0.033-0.101-0.1-0.167-0.199-0.2-0.2-0.101-0.434-0.033-0.7 0.2-0.367 0.366-0.316 1.25 0.149 2.649-0.933 0.134-1.633 0.084-2.1-0.149l-1.95-0.7c0.634-0.434 1.017-1.134 1.15-2.101 0.133-0.666-0.117-1.283-0.75-1.85-0.334-0.333-0.566-0.55-0.7-0.65-0.233-0.199-0.483-0.283-0.75-0.25-0.233 0.034-0.417 0.134-0.55 0.301-0.066 0.066-0.117 0.133-0.15 0.199-0.1-0.033-0.017-0.383 0.25-1.05 0.3-0.733 0.934-0.95 1.9-0.649 0.6 0.166 0.95 0.649 1.05 1.449 1e-3 -0.235 0.051-0.568 0.151-1.001z" clip-rule="evenodd" fill="url(#fk)" fill-rule="evenodd"/>
			<use transform="matrix(1 0 0 -1 5.0498 27.35)" x="0.063" y="-29.76" width="88.838" height="29.785" enable-background="new" opacity=".7617" xlink:href="#cn"/>
			<use transform="matrix(1 0 0 -1 55.2 72.55)" y="-11.033" width="28.606" height="11.089" enable-background="new" opacity=".5508" xlink:href="#cm"/>
			<linearGradient id="fq" x1="32.181" x2="73.08" y1="-72.356" y2="-72.356" gradientTransform="matrix(-.4401 .8979 -.8979 -.4401 -.00022054 .00017846)" gradientUnits="userSpaceOnUse">
			<stop stop-color="#242224" offset="0"/>
			<stop stop-color="#27252E" offset=".2118"/>
			<stop stop-color="#302E49" offset=".5765"/>
			<stop stop-color="#32304E" offset=".6353"/>
			<stop stop-color="#617D84" offset="1"/>
		</linearGradient>
		<path d="m50.65 31.6v1.5c0 5.733-0.483 11.017-1.45 15.85 0.333 0.033 0.833-0.1 1.5-0.4 1.1-0.4 2.083-1.183 2.95-2.35 0.333-0.434 0.649-1.017 0.949-1.75 0.4-0.967 0.667-1.583 0.801-1.85 0.033 0 0.267 0.05 0.699 0.15 0.301 0.067 0.483 0.167 0.551 0.3 0.1 0.2-0.067 0.817-0.5 1.85-0.5 1.6-1.134 2.883-1.9 3.85-0.866 1.067-2.15 2.083-3.85 3.05-2.867 1.633-4.784 4.35-5.75 8.15-0.867 3.467-0.767 6.833 0.3 10.1 1.167 3.533 2.1 6.7 2.8 9.5 0.267 1.066 0.616 2.684 1.05 4.851 0.434 1.933 0.851 3.533 1.25 4.8 0.634 2 2.017 3.05 4.15 3.149 1.566 0.101 3.184-0.466 4.85-1.699 1.134-0.801 2.4-2.017 3.8-3.65 1-1.167 1.7-2.083 2.101-2.75 0.666-1.134 1-2.217 1-3.25 0-1.134 0.217-2.517 0.649-4.15 0.567-1.833 0.967-3.183 1.2-4.05l2.55 1.4-0.75 1.2c-0.566 0.933-0.966 1.75-1.199 2.449-0.2 0.7-0.301 1.483-0.301 2.351 0 1 0.167 1.533 0.5 1.6 0.934 0.233 1.917 0 2.95-0.7 1.267-0.866 2.066-2.267 2.4-4.199 0.267 0.066 0.55 0.216 0.85 0.449-0.366 1.432-0.916 2.649-1.65 3.649-0.5 0.667-1.25 1.366-2.25 2.1-0.534 0.4-1.217 0.884-2.051 1.45-1.199 1.134-1.933 1.851-2.199 2.15-0.733 0.767-1.434 1.666-2.101 2.7-1.066 1.6-1.767 3.383-2.1 5.35-0.233 1.267 0.066 2.267 0.899 3 0.467 0.434 1.45 0.95 2.95 1.55 0.767 0.334 0.184 0.25-1.75-0.25-0.5-0.166-1.916-0.383-4.25-0.649-4.133-0.434-7.233-0.767-9.3-1l-4.3-0.5c-2.4-0.367-5.184-0.417-8.35-0.15-1.797 0.189-4.389 0.556-7.775 1.1 1.545-0.32 3.087-1.221 4.625-2.699 1.533-1.467 2.7-3.101 3.5-4.9 1.533-3.4 2.167-7.05 1.9-10.95-0.7-4.866-1.2-8.883-1.5-12.05-0.167-2.267-0.667-4.167-1.5-5.7-0.767-1.6-1.517-3.149-2.25-4.65-0.8-1.667-1.7-3.767-2.7-6.3-2.066-5.3-3.55-10.217-4.45-14.75l3.75-0.4c-0.067 0 0.05 0.883 0.35 2.65 0.233 1.4 0.4 2.35 0.5 2.85 0.067 0.3 0.2 1.183 0.4 2.65 0.167 1.066 0.35 1.933 0.55 2.6 0.5 1.466 1.383 3.417 2.65 5.85 1.133 2.1 2.3 3.517 3.5 4.25 0.934 0.534 2.067-0.1 3.4-1.9 0.967-1.4 1.733-2.883 2.3-4.45 0.967-2.567 1.45-6 1.45-10.3l-0.248-5.652 3.85-2.4z" clip-rule="evenodd" fill="url(#fq)" fill-rule="evenodd"/>
			<path d="m83.25 75.55c0.066 0.601 0.2 1.517 0.4 2.75 0.133 1.066 0.149 1.967 0.05 2.7 0 0.4-0.066 0.684-0.2 0.85-0.134 0.167-0.233 0.051-0.3-0.35-0.066-0.467-0.167-0.7-0.3-0.7-0.067 0.033-0.217 0.217-0.45 0.55-0.167 0.233-0.351 0.334-0.55 0.301-0.167-0.034-0.483-0.217-0.95-0.551-0.4-0.3-0.767-0.416-1.101-0.35-0.133 0.033-0.283 0.15-0.449 0.35-0.167 0.2-0.284 0.317-0.351 0.351-0.566 0.467-1.316 0.2-2.25-0.8-0.233-0.434-0.434-0.784-0.6-1.051-0.3-0.433-0.584-0.55-0.851-0.35-0.066 0.033-0.116 0.134-0.149 0.3-0.066 0.134-0.15 0.233-0.25 0.3-0.101 0.067-0.283 0.034-0.55-0.1-0.233-0.134-0.4-0.217-0.5-0.25-0.2-0.1-0.4-0.116-0.601-0.05-0.166 0.066-0.434 0.25-0.8 0.55-0.333 0.233-0.616 0.384-0.85 0.45-0.567 0.166-1.217-0.134-1.95-0.9-0.8-0.8-1.467-1.2-2-1.2-0.467 0.034-1.033 0.317-1.7 0.851-0.366 0.3-0.85 0.717-1.45 1.25-0.5 0.434-0.967 0.633-1.399 0.6-0.233-0.033-0.45-0.149-0.65-0.35-0.233-0.267-0.4-0.434-0.5-0.5-0.2-0.101-0.566-0.101-1.1 0-0.434 0.066-0.767-0.05-1-0.351-0.167-0.267-0.301-0.933-0.4-2 0-0.166-0.017-0.316-0.05-0.449-0.033-0.167-0.117-0.267-0.25-0.301-0.101 0-0.351 0.2-0.75 0.601-0.066 0.066-0.334 0.366-0.8 0.899-0.334 0.4-0.634 0.684-0.9 0.851-0.366 0.233-0.616 0.166-0.75-0.2-0.1-0.5-0.167-0.85-0.2-1.05-0.267 0.3-0.467 0.316-0.6 0.05-0.066-0.2-0.084-0.467-0.05-0.8 0.033-1.634 0.699-3.233 2-4.8 1.133-1.434 5.783-1.534 13.949-0.301 7.968 1.233 12.018 2.3 12.152 3.2z" clip-rule="evenodd" fill="#FBE6C3" fill-rule="evenodd"/>
			<path d="m88.8 38.8c2.033 2.934 3.367 5.317 4 7.15 0.467 1.367 0.75 2.4 0.851 3.1 0.1 0.934 0.017 1.983-0.25 3.15-0.301 1.3-0.784 2.233-1.45 2.8-0.8 0.6-1.566 0.367-2.3-0.7-0.767-1.167-1.25-1.85-1.45-2.05-0.667-0.6-1.384-0.633-2.15-0.1-0.666 0.533-1.2 0.8-1.6 0.8-0.3 0-0.783-0.2-1.45-0.6-0.634-0.4-1.134-0.55-1.5-0.45-0.233 0.067-0.667 0.517-1.3 1.35-0.467 0.633-1.05 0.817-1.75 0.55-0.8-0.267-1.634-1-2.5-2.2-0.967-1.367-1.717-2.217-2.25-2.55-1-0.633-2.134-0.566-3.4 0.2-1.467 0.9-2.583 1.283-3.35 1.15-0.9-0.167-1.65-0.733-2.25-1.7-0.267-0.4-0.667-1.3-1.2-2.7-0.6-1.433-1.283-2.1-2.05-2-0.533 0.033-1.867 0.717-4 2.05-1.634 1.034-2.8 1.117-3.5 0.25-0.533-1.267-0.967-2.1-1.3-2.5-0.334-0.433-1.051-0.033-2.15 1.2-1.566 1.733-2.833 2.867-3.8 3.4-1.3 0.733-2.65 0.4-4.05-1-1.333-1.7-2.2-2.75-2.6-3.15-0.5-0.5-1.233-0.467-2.2 0.1-1.534 1.067-2.951 1.95-4.251 2.65-1.567 0.9-2.867 1.083-3.9 0.55-0.967-0.833-1.817-1.333-2.55-1.5-0.7-0.167-1.783 0.667-3.25 2.5-1.467 1.8-2.617 2.617-3.45 2.45-0.7-0.133-1.284-0.583-1.75-1.35-0.3-0.633-0.55-1.1-0.75-1.4-0.367-0.533-0.767-0.617-1.2-0.25-0.4 0.3-0.883 1.067-1.45 2.3-0.533 1.233-1.267 2.184-2.2 2.85-0.533 0.4-1.033 0.55-1.5 0.45-0.367-0.067-0.717-0.283-1.05-0.65-0.367-0.4-0.65-0.7-0.85-0.9-0.367-0.3-0.617-0.267-0.75 0.1-0.067 0.233-0.117 0.617-0.15 1.15-0.167 0.9-0.65 1-1.45 0.3-0.967-0.833-1.567-2.033-1.8-3.6-0.5-3.167-0.316-6.883 0.55-11.15 0.8-4.233 1.9-7.6 3.3-10.1 0.8-1.4 2.383-2.4 4.75-3 1.233-0.333 3.167-0.6 5.8-0.8 5.4-0.467 11.466-0.35 18.2 0.35 5.133 0.534 11.133 1.5 18 2.9 5.166 1.066 7.8 1.6 7.899 1.6 3.033 0.7 5.601 1.467 7.7 2.3 1.733 0.7 4.783 1.417 9.15 2.15 3.834 0.933 6.467 2.45 7.901 4.55z" clip-rule="evenodd" fill="#FBE6C3" fill-rule="evenodd"/>
				<linearGradient id="cj" x1="-61.558" x2="-7.2071" y1="5.6182" y2="5.6182" gradientTransform="matrix(-.7291 -.6844 .6844 -.7291 -.00022852 .00054431)" gradientUnits="userSpaceOnUse">
				<stop stop-color="#E04A43" offset="0"/>
				<stop stop-color="#E25F63" offset="1"/>
			</linearGradient>
			<path d="m82.3 48.5c-0.566 0.733-1.366 0.783-2.399 0.15-0.2-0.133-0.9-0.733-2.101-1.8l-1.05-0.9c-0.366-0.3-0.7-0.5-1-0.6-0.267-0.067-0.767-0.1-1.5-0.1-1.533 0-2.583-0.117-3.15-0.35-0.833-0.367-1.55-1.15-2.149-2.35-0.634-1.2-1.017-1.883-1.15-2.05l-0.7-1.15c-0.199-0.434-0.449-0.633-0.75-0.6-0.233 0.067-0.483 0.233-0.75 0.5-0.666 0.5-1.333 0.95-2 1.35-0.5 0.367-0.966 0.566-1.399 0.6-1.334 0.167-2.367-1.083-3.101-3.75l-0.101-0.25c-0.233-0.867-0.6-1.267-1.1-1.2-0.601 0.1-1.584 1.333-2.95 3.7-0.834 1.367-1.783 2.15-2.851 2.35-0.699 0.1-1.666-0.183-2.899-0.85l-0.1-0.05-0.6-0.5c-0.7-0.633-1.384-0.9-2.05-0.8-0.534 0.033-1.2 0.283-2 0.75-0.267 0.167-0.567 0.283-0.9 0.35-1.3 0.167-2.466-1.167-3.5-4-0.167-0.567-0.383-0.833-0.65-0.8-0.167 0.033-0.333 0.25-0.5 0.65-0.467 1.167-0.983 2.15-1.55 2.95-0.7 1.033-1.583 1.633-2.65 1.8-0.567 0.1-1.1 0.034-1.6-0.2-0.467-0.2-0.817-0.483-1.05-0.85-0.133-0.2-0.316-0.633-0.55-1.3-0.267-0.967-0.633-1.417-1.1-1.35-0.467 0.066-1.117 0.917-1.95 2.55-1.2 2.4-2.65 3.767-4.35 4.1-0.7 0.067-1.25-0.083-1.65-0.45-0.167-0.167-0.467-0.683-0.9-1.55-0.267-0.733-0.566-1.083-0.9-1.05-0.333 0.033-0.617 0.517-0.85 1.45-0.2 0.9-0.533 1.367-1 1.4-0.4 0.067-1.05-0.233-1.95-0.9-0.267-0.2-0.567-0.283-0.9-0.25-0.5 0.067-1.833 1.4-4 4-1.833 2.233-3.2 2.867-4.1 1.9-0.133-0.133-0.317-0.9-0.55-2.3-0.167-1.133-0.4-1.467-0.7-1-0.367 0.667-0.633 1.583-0.8 2.75-0.133 0.7-0.133 1.383 0 2.05 0.167 1.034 0.25 1.567 0.25 1.6-0.333-0.533-0.617-1.383-0.85-2.55-0.367-1.934-0.4-4.15-0.1-6.65 0.2-1.633 0.6-3.833 1.2-6.6 1.733-7.934 5.267-15.1 10.6-21.5 6.8-8.133 15.3-12.934 25.5-14.4 8.267-1.167 16.133-0.117 23.6 3.15 7.3 3.167 13.45 8.15 18.45 14.95 2.7 3.6 4.833 7.333 6.399 11.2 0.9 2.2 1.667 4.667 2.301 7.4 0.666 2.767 1.066 5.333 1.199 7.7 0.067 1.167 0.067 2.316 0 3.45-0.133 2.133-0.449 3.4-0.949 3.8-0.167 0.2-0.25-0.367-0.25-1.7 0-1.767-0.2-3.017-0.601-3.75-0.467-0.8-0.866-1-1.2-0.6-0.399 0.833-0.75 1.517-1.05 2.05-0.467 0.833-1 1.367-1.6 1.6-0.667 0.233-1.3 0.066-1.9-0.5-0.434-0.434-0.899-1.3-1.399-2.6-0.167-0.5-0.317-0.917-0.45-1.25-0.267-0.633-0.55-0.934-0.851-0.9-0.5 0.033-0.883 0.617-1.149 1.75-0.367 1.433-0.584 2.2-0.65 2.3z" clip-rule="evenodd" fill="url(#cj)" fill-rule="evenodd"/>
				<radialGradient id="ck" cx="50.591" cy="72.593" r="43.049" gradientTransform="matrix(.9902 -.1399 -.1171 -.8284 18.654 132.02)" gradientUnits="userSpaceOnUse">
				<stop stop-color="#E04A43" offset="0"/>
				<stop stop-color="#C62A33" offset="1"/>
			</radialGradient>
			<path d="m82.15 80.9c-0.534 0.433-1.167-0.084-1.9-1.551-0.5-0.833-0.917-1.017-1.25-0.55-0.667 0.834-1.15 1.3-1.45 1.4-0.5 0.166-0.883-0.334-1.149-1.5-0.233-1.134-0.617-1.634-1.15-1.5-0.333 0.1-0.9 0.583-1.7 1.45-0.6 0.733-1.316 1.017-2.149 0.85-0.534-0.066-1.301-0.467-2.301-1.2-0.767-0.566-1.316-0.717-1.649-0.45-2.967 2.5-4.917 3-5.851 1.5-0.199-0.366-0.366-0.916-0.5-1.649-0.133-0.767-0.283-1.316-0.449-1.65-0.101-0.233-0.167-0.35-0.2-0.35-0.066-0.033-0.2 0-0.4 0.1-0.3 0.134-0.883 0.634-1.75 1.5-0.566 0.533-0.95 0.851-1.149 0.95-0.534 0.3-0.884 0.167-1.051-0.4-0.066-0.267-0.083-0.649-0.05-1.149 0-0.581 0.066-0.956 0.2-1.125-0.141 0.171-0.324 0.579-0.55 1.225-0.167 0.533-0.3 0.75-0.4 0.65-0.1-0.3-0.133-0.634-0.1-1 0.033-0.334 0.2-0.967 0.5-1.9l0.8-2.149c1.2-2.967 2.717-5.301 4.55-7 2.634-2.434 5.851-3.65 9.65-3.65 2 0 4.05 0.684 6.149 2.05 2.9 1.867 4.9 4.717 6 8.55 0.467 1.601 0.75 2.9 0.851 3.9l0.1 1.95c0 0.133 0.017 0.583 0.05 1.35 0 0.7-0.066 1.117-0.199 1.25-0.2 0.134-0.334-0.149-0.4-0.85-0.066-0.667-0.134-0.967-0.2-0.9-0.133 0.134-0.283 0.45-0.45 0.95-0.136 0.465-0.287 0.765-0.453 0.898z" clip-rule="evenodd" fill="url(#ck)" fill-rule="evenodd"/>
			<linearGradient id="cl" x1="-19.4" x2="-12.04" y1="-28.58" y2="-28.58" gradientTransform="matrix(-.9783 -.2072 .2072 -.9783 -7.3493e-5 -.00069383)" gradientUnits="userSpaceOnUse">
			<stop stop-color="#D03D42" offset="0"/>
			<stop stop-color="#E25F63" offset="1"/>
		</linearGradient>
		<path d="m12.95 27.05c1.3-1.133 2.283-1.233 2.95-0.3 0.6 0.9 0.617 2.083 0.05 3.55-0.6 1.534-1.583 3.1-2.95 4.7-1.5 1.767-2.717 2.583-3.65 2.45-1.067-0.167-1.183-1.55-0.35-4.15 0.833-2.633 2.15-4.717 3.95-6.25z" clip-rule="evenodd" fill="url(#cl)" fill-rule="evenodd"/>
			<radialGradient id="dg" cx="2.4595" cy="30.847" r="10.062" gradientTransform="matrix(.9902 -.1399 -.1421 -1.0062 8.6985 61.582)" gradientUnits="userSpaceOnUse">
			<stop stop-color="#FBE6C3" offset="0"/>
			<stop stop-color="#E25F63" offset="1"/>
		</radialGradient>
		<path d="m12.1 27.3c1.233-1.066 2.15-1.15 2.75-0.25 0.566 0.867 0.583 1.983 0.05 3.35-0.533 1.434-1.433 2.917-2.7 4.45-1.434 1.667-2.583 2.433-3.45 2.3-0.967-0.133-1.067-1.433-0.3-3.9 0.767-2.533 1.983-4.517 3.65-5.95z" clip-rule="evenodd" fill="url(#dg)" fill-rule="evenodd"/>
			<linearGradient id="dh" x1="-24.08" x2="-14.049" y1="-13.031" y2="-13.031" gradientTransform="matrix(-.9745 -.2243 .2243 -.9745 .00037897 .00086714)" gradientUnits="userSpaceOnUse">
			<stop stop-color="#D03D42" offset="0"/>
			<stop stop-color="#E25F63" offset="1"/>
		</linearGradient>
		<path d="m18.6 16.6c2.333-2.434 3.483-2.8 3.45-1.1-0.033 1.733-0.9 3.35-2.6 4.85-1.467 1.3-2.267 1.3-2.4 0-0.1-1.3 0.417-2.55 1.55-3.75z" clip-rule="evenodd" fill="url(#dh)" fill-rule="evenodd"/>
			<radialGradient id="di" cx="11.81" cy="18.281" r="9.2278" gradientTransform="matrix(.9902 -.1398 -.1419 -1.0052 5.151 36.476)" gradientUnits="userSpaceOnUse">
			<stop stop-color="#FBE6C3" offset="0"/>
			<stop stop-color="#E25F63" offset="1"/>
		</radialGradient>
		<path d="m18.05 17.25c1.934-2.033 2.9-2.333 2.9-0.9-0.034 1.433-0.767 2.767-2.2 4-1.2 1.066-1.867 1.066-2 0-0.1-1.067 0.333-2.1 1.3-3.1z" clip-rule="evenodd" fill="url(#di)" fill-rule="evenodd"/>
			<linearGradient id="dj" x1="-34.558" x2="-21.67" y1="-15.52" y2="-15.52" gradientTransform="matrix(-.9525 -.3046 .3046 -.9525 -.0001722 .00045806)" gradientUnits="userSpaceOnUse">
			<stop stop-color="#D03D42" offset="0"/>
			<stop stop-color="#E25F63" offset="1"/>
		</linearGradient>
		<path d="m24.45 19.5c2.633-1.633 4.466-1.95 5.5-0.95 0.867 0.867 1.017 2.35 0.45 4.45-0.533 2-2.033 3.917-4.5 5.75-2.667 1.967-4.683 2.367-6.05 1.2-1.133-0.967-1.15-2.65-0.05-5.05 1.067-2.333 2.617-4.133 4.65-5.4z" clip-rule="evenodd" fill="url(#dj)" fill-rule="evenodd"/>
			<radialGradient id="dk" cx="15.869" cy="24.517" r="9.3824" gradientTransform="matrix(.9901 -.1402 -.1423 -1.0049 6.9262 48.911)" gradientUnits="userSpaceOnUse">
			<stop stop-color="#FBE6C3" offset="0"/>
			<stop stop-color="#E25F63" offset="1"/>
		</radialGradient>
		<path d="m23.7 19.8c2.4-1.533 4.066-1.833 5-0.9 0.8 0.8 0.95 2.184 0.45 4.15-0.467 1.8-1.833 3.567-4.1 5.3-2.433 1.833-4.267 2.217-5.5 1.15-1.066-0.9-1.1-2.467-0.1-4.7 0.967-2.167 2.383-3.833 4.25-5z" clip-rule="evenodd" fill="url(#dk)" fill-rule="evenodd"/>
		<g clip-rule="evenodd" fill-rule="evenodd">
				<linearGradient id="dl" x1="-88.542" x2="-82.066" y1="-34.078" y2="-34.078" gradientTransform="matrix(-.9072 -.4208 .4208 -.9072 .00019246 -.00066501)" gradientUnits="userSpaceOnUse">
				<stop stop-color="#D8242B" offset="0"/>
				<stop stop-color="#E25F63" offset="1"/>
			</linearGradient>
			<path d="m64.25 65.5c1.1-0.6 1.85-0.733 2.25-0.4 0.366 0.267 0.417 0.767 0.15 1.5-0.233 0.667-0.917 1.417-2.051 2.25-1.233 0.867-2.133 1.117-2.699 0.75-0.467-0.3-0.4-0.949 0.199-1.949 0.601-1.001 1.318-1.717 2.151-2.151z" fill="url(#dl)"/>
				<radialGradient id="dm" cx="47.535" cy="73.436" r="8.609" gradientTransform="matrix(.9903 -.1393 -.1133 -.8058 18.552 131.9)" gradientUnits="userSpaceOnUse">
				<stop stop-color="#FBE6C3" offset="0"/>
				<stop stop-color="#E25F63" offset="1"/>
			</radialGradient>
			<path d="m63.65 65.65c1-0.534 1.699-0.65 2.1-0.351 0.3 0.267 0.333 0.733 0.1 1.4-0.233 0.6-0.816 1.2-1.75 1.8-1.033 0.667-1.8 0.816-2.3 0.45-0.434-0.3-0.416-0.816 0.05-1.55 0.4-0.765 1-1.349 1.8-1.749z" fill="url(#dm)"/>
		</g>
		<g clip-rule="evenodd" fill-rule="evenodd">
				<linearGradient id="dn" x1="-101.78" x2="-89.354" y1="32.702" y2="32.702" gradientTransform="matrix(-.4648 -.8854 .8854 -.4648 .0002242 -.0008868)" gradientUnits="userSpaceOnUse">
				<stop stop-color="#D8242B" offset="0"/>
				<stop stop-color="#DE4A4F" offset="1"/>
			</linearGradient>
			<path d="m76.95 70.3c1.366 0.9 1.783 1.9 1.25 3-0.5 0.934-1.3 1.467-2.4 1.601-1.6 0.166-2.85-0.233-3.75-1.2-0.8-0.9-0.967-1.8-0.5-2.7 0.533-0.967 1.367-1.483 2.5-1.55 0.967-0.034 1.933 0.249 2.9 0.849z" fill="url(#dn)"/>
				<radialGradient id="do" cx="91.294" cy="-37.38" r="9.3189" gradientTransform="matrix(.4519 .8921 .9536 -.4831 68.993 -34.948)" gradientUnits="userSpaceOnUse">
				<stop stop-color="#FBE6C3" offset="0"/>
				<stop stop-color="#F1B19D" offset=".2863"/>
				<stop stop-color="#E77A75" offset=".6157"/>
				<stop stop-color="#E0575B" offset=".8667"/>
				<stop stop-color="#DE4A52" offset="1"/>
			</radialGradient>
			<path d="m77.4 70.7c0.533 0.767 0.6 1.517 0.199 2.25-0.399 0.733-1.149 1.116-2.25 1.149-0.866 0.034-1.683-0.3-2.449-1-0.867-0.8-1.051-1.649-0.551-2.55 0.367-0.633 1.084-1 2.15-1.1 1.234-0.133 2.201 0.284 2.901 1.251z" fill="url(#do)"/>
		</g>
		<g clip-rule="evenodd" fill-rule="evenodd">
				<linearGradient id="dq" x1="-54.57" x2="-23.425" y1="32.348" y2="32.348" gradientTransform="matrix(-.595 -.8038 .8038 -.595 6.1691e-5 -.00037098)" gradientUnits="userSpaceOnUse">
				<stop stop-color="#D03D42" offset="0"/>
				<stop stop-color="#E25F63" offset="1"/>
			</linearGradient>
			<path d="m61.8 17.55c4.033 1.767 5.601 4.067 4.7 6.9-0.767 2.533-2.583 4.183-5.45 4.95-4.233 1.133-7.633 0.684-10.2-1.35-2.333-1.9-3.033-4.083-2.1-6.55 0.866-2.333 2.65-3.867 5.35-4.6 2.567-0.7 5.133-0.483 7.7 0.65z" fill="url(#dq)"/>
				<radialGradient id="ds" cx="34.239" cy="-41.835" r="24.931" gradientTransform="matrix(.5827 .8127 .9091 -.6517 72.032 -51.642)" gradientUnits="userSpaceOnUse">
				<stop stop-color="#FBE6C3" offset="0"/>
				<stop stop-color="#E25F63" offset="1"/>
			</radialGradient>
			<path d="m64.15 19.15c1.8 1.8 2.233 3.633 1.3 5.5-0.967 1.867-3.017 3.167-6.15 3.9-2.533 0.567-4.95 0.083-7.25-1.45-2.5-1.7-3.184-3.917-2.05-6.65 0.767-1.833 2.65-3.067 5.65-3.7 3.367-0.667 6.2 0.133 8.5 2.4z" fill="url(#ds)"/>
		</g>
		<g clip-rule="evenodd" fill-rule="evenodd">
				<linearGradient id="dt" x1="-98.401" x2="-86.367" y1="67.111" y2="67.111" gradientTransform="matrix(-.3864 -.9223 .6172 -1.1147 -.00020134 .00015312)" gradientUnits="userSpaceOnUse">
				<stop stop-color="#D03D42" offset="0"/>
				<stop stop-color="#E25F63" offset="1"/>
			</linearGradient>
			<path d="m82.4 19.1c0.066 0.8-0.184 1.15-0.75 1.05-0.834-0.133-1.684-0.717-2.551-1.75-0.767-0.933-1.199-1.75-1.3-2.45-0.066-0.733 0.2-1.017 0.8-0.85 0.534 0.133 1.184 0.533 1.95 1.2 1.135 1 1.751 1.933 1.851 2.8z" fill="url(#dt)"/>
				<radialGradient id="du" cx="52.216" cy="-56.27" r="9.9624" gradientTransform="matrix(.5821 .8131 .3488 -.2497 65.38 -46.808)" gradientUnits="userSpaceOnUse">
				<stop stop-color="#FBE6C3" offset="0"/>
				<stop stop-color="#E25F63" offset="1"/>
			</radialGradient>
			<path d="m81 16.75c0.634 0.767 0.983 1.45 1.05 2.05 0.033 0.6-0.267 0.817-0.899 0.65-0.5-0.133-1.117-0.567-1.851-1.3-0.833-0.867-1.267-1.65-1.3-2.35-0.033-0.5 0.25-0.7 0.85-0.6 0.667 0.1 1.383 0.617 2.15 1.55z" fill="url(#du)"/>
		</g>
		<g clip-rule="evenodd" fill-rule="evenodd">
				<linearGradient id="dv" x1="-82.182" x2="-57.256" y1="58.671" y2="58.671" gradientTransform="matrix(-.4303 -.9027 .6729 -.9124 -2.1398e-5 -.00052732)" gradientUnits="userSpaceOnUse">
				<stop stop-color="#D03D42" offset="0"/>
				<stop stop-color="#E25F63" offset="1"/>
			</linearGradient>
			<path d="m78.9 28.3c-2.034-0.033-3.95-1.1-5.75-3.2-1.667-1.934-2.483-3.65-2.45-5.15 0-1.667 0.733-2.434 2.2-2.3 1.267 0.133 2.767 0.867 4.5 2.2 2.466 1.933 3.683 3.883 3.649 5.85-0.032 1.767-0.749 2.633-2.149 2.6z" fill="url(#dv)"/>
				<radialGradient id="dw" cx="44.928" cy="-51.953" r="20.452" gradientTransform="matrix(.5826 .8128 .4535 -.3251 65.79 -47.155)" gradientUnits="userSpaceOnUse">
				<stop stop-color="#FBE6C3" offset="0"/>
				<stop stop-color="#E25F63" offset="1"/>
			</radialGradient>
			<path d="m78.3 20.8c1.334 1.534 1.983 2.967 1.95 4.3s-0.816 1.917-2.35 1.75c-1.2-0.1-2.601-0.917-4.2-2.45-1.767-1.7-2.617-3.333-2.55-4.9 0.066-1.1 0.816-1.633 2.25-1.6 1.633 0.033 3.267 1 4.9 2.9z" fill="url(#dw)"/>
		</g>
		<g clip-rule="evenodd" fill-rule="evenodd">
				<linearGradient id="dx" x1="-86.098" x2="-60.04" y1="42.713" y2="42.713" gradientTransform="matrix(-.7023 -.7119 .1319 -1.2902 .00048295 .00073934)" gradientUnits="userSpaceOnUse">
				<stop stop-color="#D03D42" offset="0"/>
				<stop stop-color="#E25F63" offset="1"/>
			</linearGradient>
			<path d="m68.15 5.9c3.133 1.1 5.233 2.517 6.3 4.25 0.934 1.467 0.967 2.3 0.1 2.5-1.833 0.434-4.033 0.033-6.6-1.2-2.4-1.133-3.95-2.35-4.65-3.65-0.866-1.533-0.783-2.433 0.25-2.7 0.9-0.233 2.433 0.033 4.6 0.8z" fill="url(#dx)"/>
				<radialGradient id="dy" cx="43.058" cy="-32.411" r="22.893" gradientTransform="matrix(.8469 .5318 .2211 -.3522 24.403 -38.862)" gradientUnits="userSpaceOnUse">
				<stop stop-color="#FBE6C3" offset="0"/>
				<stop stop-color="#E25F63" offset="1"/>
			</radialGradient>
			<path d="m70.15 6.25c2 1.067 3.316 2.2 3.949 3.4 0.667 1.2 0.267 1.9-1.199 2.1-1.2 0.133-2.9-0.283-5.101-1.25-2.5-1.133-4.116-2.417-4.85-3.85-0.5-0.967-0.084-1.6 1.25-1.9 1.501-0.367 3.485 0.133 5.951 1.5z" fill="url(#dy)"/>
		</g>
		<g clip-rule="evenodd" fill-rule="evenodd">
				<linearGradient id="dz" x1="-115.8" x2="-106.49" y1="43.736" y2="43.736" gradientTransform="matrix(-.4081 -.9129 .7333 -.81 .00024149 .00074059)" gradientUnits="userSpaceOnUse">
				<stop stop-color="#D8242B" offset="0"/>
				<stop stop-color="#DE4A4F" offset="1"/>
			</linearGradient>
			<path d="m79.2 67.3c0.934 0.733 1.366 1.467 1.3 2.2-0.033 0.634-0.333 0.95-0.9 0.95-0.8-0.033-1.55-0.434-2.25-1.2-0.633-0.7-0.916-1.333-0.85-1.9 0.066-0.633 0.4-0.933 1-0.899 0.5 0.066 1.066 0.349 1.7 0.849z" fill="url(#dz)"/>
				<radialGradient id="ea" cx="94.831" cy="-32.047" r="7.3956" gradientTransform="matrix(.5423 .8402 1.0612 -.6849 60.936 -39.327)" gradientUnits="userSpaceOnUse">
				<stop stop-color="#FBE6C3" offset="0"/>
				<stop stop-color="#F7D3B5" offset=".0588"/>
				<stop stop-color="#F0A997" offset=".2078"/>
				<stop stop-color="#E9877E" offset=".3608"/>
				<stop stop-color="#E46C6B" offset=".5137"/>
				<stop stop-color="#E1595D" offset=".6706"/>
				<stop stop-color="#DF4E55" offset=".8314"/>
				<stop stop-color="#DE4A52" offset="1"/>
			</radialGradient>
			<path d="m79.55 67.6c0.434 0.567 0.634 1.101 0.601 1.601-0.067 0.467-0.384 0.684-0.95 0.649-0.467-0.066-0.983-0.383-1.55-0.949-0.634-0.634-0.9-1.25-0.801-1.851 0.067-0.399 0.367-0.583 0.9-0.55 0.634 0 1.233 0.366 1.8 1.1z" fill="url(#ea)"/>
		</g>
		<g clip-rule="evenodd" fill-rule="evenodd">
				<linearGradient id="eb" x1="-98.772" x2="-89.244" y1="-17.744" y2="-17.744" gradientTransform="matrix(-.8396 -.5431 .5431 -.8396 .0003956 -.0002045)" gradientUnits="userSpaceOnUse">
				<stop stop-color="#D8242B" offset="0"/>
				<stop stop-color="#E25F63" offset="1"/>
			</linearGradient>
			<path d="m72.9 65.4c1.033 0.399 1.483 0.983 1.35 1.75-0.134 0.666-0.583 1.133-1.35 1.399-1.434 0.467-2.717 0.5-3.851 0.101-1.166-0.4-1.633-1.051-1.399-1.95 0.166-0.7 0.75-1.217 1.75-1.55 1.1-0.334 2.267-0.25 3.5 0.25z" fill="url(#eb)"/>
				<radialGradient id="ed" cx="91.588" cy="-5.2227" r="7.9992" gradientTransform="matrix(.7094 .7048 .7594 -.7642 7.6469 -7.6963)" gradientUnits="userSpaceOnUse">
				<stop stop-color="#FBE6C3" offset="0"/>
				<stop stop-color="#E25F63" offset="1"/>
			</radialGradient>
			<path d="m72.2 65.1c0.967 0.334 1.434 0.851 1.399 1.551-0.066 0.633-0.416 1.116-1.05 1.449-1.133 0.5-2.184 0.467-3.149-0.1-0.967-0.566-1.25-1.2-0.851-1.9 0.3-0.566 0.816-0.933 1.55-1.1 0.668-0.2 1.368-0.167 2.101 0.1z" fill="url(#ed)"/>
		</g>
		<g clip-rule="evenodd" fill-rule="evenodd">
				<linearGradient id="ee" x1="-70.9" x2="-67.023" y1="-73.752" y2="-73.752" gradientTransform="matrix(-.9995 .0322 .0065 -1.0007 .00048448 .00011022)" gradientUnits="userSpaceOnUse">
				<stop stop-color="#D8242B" offset="0"/>
				<stop stop-color="#E25F63" offset="1"/>
			</linearGradient>
			<path d="m69.55 70.55c0.434-0.1 0.7-0.017 0.8 0.25 0.101 0.267 0.067 0.533-0.1 0.8-0.366 0.5-0.783 0.817-1.25 0.95-0.467 0.134-0.767 0.017-0.9-0.35-0.1-0.267-0.017-0.566 0.25-0.9 0.266-0.366 0.667-0.616 1.2-0.75z" fill="url(#ee)"/>
				<radialGradient id="ef" cx="79.475" cy="55.49" r="3.1991" gradientTransform="matrix(.9807 .1954 .2188 -1.098 -22.982 115.35)" gradientUnits="userSpaceOnUse">
				<stop stop-color="#FBE6C3" offset="0"/>
				<stop stop-color="#E25F63" offset="1"/>
			</radialGradient>
			<path d="m69.25 70.6c0.4-0.1 0.667-0.033 0.8 0.2 0.134 0.233 0.117 0.483-0.05 0.75-0.267 0.434-0.616 0.667-1.05 0.7s-0.667-0.116-0.7-0.45c-0.066-0.633 0.267-1.033 1-1.2z" fill="url(#ef)"/>
		</g>
		<g clip-rule="evenodd" fill-rule="evenodd">
				<linearGradient id="eg" x1="-74.604" x2="-60.608" y1="-68.905" y2="-68.905" gradientTransform="matrix(-.9985 -.0554 .1161 -.9951 -6.5982e-5 -.00093756)" gradientUnits="userSpaceOnUse">
				<stop stop-color="#D8242B" offset="0"/>
				<stop stop-color="#E25F63" offset="1"/>
			</linearGradient>
			<path d="m63.25 71.15c0.967-0.934 1.75-1.301 2.35-1.101 0.5 0.167 0.767 0.667 0.801 1.5 0.066 0.734-0.301 1.551-1.101 2.451-0.833 0.934-1.633 1.3-2.399 1.1-0.667-0.166-0.95-0.683-0.851-1.55 0.1-0.866 0.5-1.666 1.2-2.4z" fill="url(#eg)"/>
				<radialGradient id="eh" cx="14.535" cy="89.711" r="5.1707" gradientTransform="matrix(.9138 -.4061 -.4642 -.7712 88.258 146.64)" gradientUnits="userSpaceOnUse">
				<stop stop-color="#FBE6C3" offset="0"/>
				<stop stop-color="#E25F63" offset="1"/>
			</radialGradient>
			<path d="m62.45 71.2c0.8-0.834 1.6-1.167 2.399-1 0.7 0.133 1.084 0.533 1.15 1.2 0.066 0.666-0.283 1.433-1.05 2.3-0.767 0.866-1.5 1.2-2.2 1-0.6-0.2-0.934-0.684-1-1.45-0.099-0.767 0.135-1.45 0.701-2.05z" fill="url(#eh)"/>
		</g>
		<g clip-rule="evenodd" fill-rule="evenodd">
				<linearGradient id="ei" x1="-85.951" x2="-79.735" y1="-36.19" y2="-36.19" gradientTransform="matrix(-.8928 -.4504 .4504 -.8928 -3.2067e-5 -.00059786)" gradientUnits="userSpaceOnUse">
				<stop stop-color="#D8242B" offset="0"/>
				<stop stop-color="#E25F63" offset="1"/>
			</linearGradient>
			<path d="m59.2 70.1c0.467-0.533 0.85-0.816 1.149-0.85 0.267 0 0.4 0.167 0.4 0.5 0.033 0.3-0.167 0.717-0.6 1.25-0.467 0.6-0.884 0.917-1.25 0.95-0.334 0.033-0.45-0.167-0.351-0.601 0.068-0.432 0.285-0.849 0.652-1.249z" fill="url(#ei)"/>
				<radialGradient id="ej" cx="-9.3911" cy="89.394" r="7.4171" gradientTransform="matrix(.8207 -.5713 -.3842 -.3994 97.107 100.94)" gradientUnits="userSpaceOnUse">
				<stop stop-color="#FBE6C3" offset="0"/>
				<stop stop-color="#E25F63" offset="1"/>
			</radialGradient>
			<path d="m58.9 70.2c0.433-0.467 0.783-0.717 1.05-0.75 0.233 0 0.35 0.149 0.35 0.45 0.033 0.267-0.149 0.649-0.55 1.149-0.4 0.533-0.783 0.816-1.15 0.851-0.3 0.033-0.399-0.15-0.3-0.551 0.066-0.366 0.266-0.749 0.6-1.149z" fill="url(#ej)"/>
		</g>
		<g clip-rule="evenodd" fill-rule="evenodd">
				<linearGradient id="ek" x1="-87.169" x2="-80.859" y1="56.283" y2="56.283" gradientTransform="matrix(-.1862 -.9825 .9458 -.3798 -.00019203 .00030178)" gradientUnits="userSpaceOnUse">
				<stop stop-color="#D8242B" offset="0"/>
				<stop stop-color="#E25F63" offset="1"/>
			</linearGradient>
			<path d="m69.55 62.75c0.867-0.167 1.417-0.134 1.65 0.1 0.166 0.2 0.1 0.467-0.2 0.801-0.3 0.333-0.866 0.6-1.7 0.8-0.899 0.2-1.5 0.166-1.8-0.101-0.233-0.233-0.116-0.517 0.35-0.85 0.5-0.366 1.067-0.616 1.7-0.75z" fill="url(#ek)"/>
				<radialGradient id="el" cx="76.137" cy="53.909" r="8.3939" gradientTransform="matrix(.9963 .0864 .1147 -.6329 -15.833 87.393)" gradientUnits="userSpaceOnUse">
				<stop stop-color="#FBE6C3" offset="0"/>
				<stop stop-color="#E25F63" offset="1"/>
			</radialGradient>
			<path d="m69.25 62.6c0.767-0.133 1.267-0.1 1.5 0.101 0.167 0.2 0.1 0.45-0.2 0.75-0.267 0.299-0.783 0.549-1.55 0.749-0.8 0.2-1.333 0.166-1.6-0.101-0.233-0.199-0.134-0.466 0.3-0.8 0.4-0.332 0.916-0.566 1.55-0.699z" fill="url(#el)"/>
		</g>
		<g clip-rule="evenodd" fill-rule="evenodd">
				<linearGradient id="em" x1="-40.071" x2="-34.622" y1="98.095" y2="98.095" gradientTransform="matrix(.679 -.7341 1.0345 .3543 .00020492 .00021595)" gradientUnits="userSpaceOnUse">
				<stop stop-color="#D8242B" offset="0"/>
				<stop stop-color="#E25F63" offset="1"/>
			</linearGradient>
			<path d="m75.2 63.55c0.6 0.367 0.866 0.684 0.8 0.95-0.033 0.2-0.267 0.35-0.7 0.45-0.366 0.066-0.866-0.066-1.5-0.4-0.666-0.333-0.983-0.666-0.95-1 0.034-0.3 0.317-0.45 0.851-0.45 0.532 0.034 1.032 0.183 1.499 0.45z" fill="url(#em)"/>
				<radialGradient id="eo" cx="92.294" cy="-20.004" r="6.4899" gradientTransform="matrix(.6375 .7704 .6876 -.468 30.364 -20.668)" gradientUnits="userSpaceOnUse">
				<stop stop-color="#FBE6C3" offset="0"/>
				<stop stop-color="#E25F63" offset="1"/>
			</radialGradient>
			<path d="m75.1 63.3c0.567 0.334 0.817 0.617 0.75 0.851-0.033 0.199-0.25 0.333-0.649 0.399-0.367 0.066-0.834-0.05-1.4-0.35-0.6-0.3-0.883-0.617-0.85-0.95 0.033-0.233 0.3-0.35 0.8-0.35s0.949 0.133 1.349 0.4z" fill="url(#eo)"/>
		</g>
		<g clip-rule="evenodd" fill-rule="evenodd">
				<linearGradient id="ep" x1="-90.64" x2="-87.046" y1="5.6689" y2="5.6689" gradientTransform="matrix(-.6678 -.7443 .8788 -.5179 -.00020498 .00057179)" gradientUnits="userSpaceOnUse">
				<stop stop-color="#D8242B" offset="0"/>
				<stop stop-color="#E25F63" offset="1"/>
			</linearGradient>
			<path d="m65 63.7c0.967-0.367 1.3-0.334 1 0.1-0.1 0.167-0.384 0.351-0.85 0.55-0.467 0.2-0.801 0.284-1 0.25-0.2-0.033-0.2-0.149 0-0.35 0.2-0.2 0.484-0.384 0.85-0.55z" fill="url(#ep)"/>
				<radialGradient id="er" cx="46.152" cy="74.852" r="4.4324" gradientTransform="matrix(.9786 -.2059 -.0931 -.3864 24.502 101.72)" gradientUnits="userSpaceOnUse">
				<stop stop-color="#FBE6C3" offset="0"/>
				<stop stop-color="#E25F63" offset="1"/>
			</radialGradient>
			<path d="m64.65 63.7c0.733-0.267 1-0.233 0.8 0.1-0.101 0.134-0.316 0.267-0.65 0.4-0.366 0.166-0.633 0.233-0.8 0.2-0.167-0.034-0.167-0.117 0-0.25 0.134-0.167 0.35-0.317 0.65-0.45z" fill="url(#er)"/>
		</g>
		<g clip-rule="evenodd" fill-rule="evenodd">
				<linearGradient id="es" x1="-49.112" x2="-41.713" y1="10.805" y2="10.805" gradientTransform="matrix(-.8718 -.4899 .4899 -.8718 8.0705e-5 -.00032061)" gradientUnits="userSpaceOnUse">
				<stop stop-color="#D03D42" offset="0"/>
				<stop stop-color="#E25F63" offset="1"/>
			</linearGradient>
			<path d="m49.7 14c0.733 0.267 1.066 0.6 1 1-0.033 0.333-0.316 0.65-0.851 0.95-0.5 0.233-1.133 0.267-1.899 0.1-0.8-0.233-1.184-0.6-1.15-1.1 0.034-0.434 0.4-0.75 1.101-0.95 0.632-0.2 1.233-0.2 1.799 0z" fill="url(#es)"/>
				<radialGradient id="et" cx="46.307" cy="-18.242" r="2.9641" gradientTransform="matrix(.7675 .641 .6073 -.873 21.536 -30.958)" gradientUnits="userSpaceOnUse">
				<stop stop-color="#FBE6C3" offset="0"/>
				<stop stop-color="#E25F63" offset="1"/>
			</radialGradient>
			<path d="m49 14.1c0.566 0.133 0.85 0.35 0.85 0.65 0.034 0.233-0.133 0.467-0.5 0.7-0.366 0.233-0.833 0.3-1.399 0.2-0.601-0.1-0.917-0.333-0.95-0.7-0.033-0.3 0.2-0.55 0.7-0.75 0.466-0.2 0.899-0.233 1.299-0.1z" fill="url(#et)"/>
		</g>
			<linearGradient id="eu" x1="-34.58" x2="-28.075" y1="10.008" y2="10.008" gradientTransform="matrix(-.8225 -.5688 .5688 -.8225 -.0004853 .0007388)" gradientUnits="userSpaceOnUse">
			<stop stop-color="#D03D42" offset="0"/>
			<stop stop-color="#E25F63" offset="1"/>
		</linearGradient>
		<path d="m31.15 6.45c2.7-1.067 4.483-1.133 5.35-0.2 0.833 0.9 0.417 1.95-1.25 3.15-1.533 1.1-3.217 2-5.05 2.7-2.034 0.8-3.45 0.983-4.25 0.55s-0.467-1.45 1-3.05c1.4-1.533 2.8-2.583 4.2-3.15z" clip-rule="evenodd" fill="url(#eu)" fill-rule="evenodd"/>
			<radialGradient id="ev" cx="24.592" cy="10.383" r="7.4229" gradientTransform="matrix(.9902 -.1396 -.1417 -1.0053 2.9202 20.72)" gradientUnits="userSpaceOnUse">
			<stop stop-color="#FBE6C3" offset="0"/>
			<stop stop-color="#E25F63" offset="1"/>
		</radialGradient>
		<path d="m30 6.35c2.6-1 4.317-1.083 5.15-0.25 0.767 0.767 0.417 1.733-1.05 2.9-1.4 1.133-2.95 2.1-4.65 2.9-1.934 0.867-3.3 1.117-4.1 0.75-0.867-0.4-0.733-1.383 0.4-2.95 1.1-1.567 2.517-2.683 4.25-3.35z" clip-rule="evenodd" fill="url(#ev)" fill-rule="evenodd"/>
			<linearGradient id="ew" x1="-32.776" x2="-26.832" y1="21.253" y2="21.253" gradientTransform="matrix(-.8202 -.572 .5823 -.8131 -.00040191 -.00062799)" gradientUnits="userSpaceOnUse">
			<stop stop-color="#D03D42" offset="0"/>
			<stop stop-color="#E25F63" offset="1"/>
		</linearGradient>
		<path d="m42 1.4c2.667-0.333 3.717-0.283 3.15 0.15-0.6 0.4-2.4 0.983-5.4 1.75-3.1 0.767-4.167 0.717-3.2-0.15 1-0.867 2.817-1.45 5.45-1.75z" clip-rule="evenodd" fill="url(#ew)" fill-rule="evenodd"/>
			<radialGradient id="ex" cx="33.136" cy="6.7119" r="6.4135" gradientTransform="matrix(.9901 -.1402 -.1424 -1.0057 1.8965 13.396)" gradientUnits="userSpaceOnUse">
			<stop stop-color="#FBE6C3" offset="0"/>
			<stop stop-color="#E25F63" offset="1"/>
		</radialGradient>
		<path d="m41.8 1.35c2.167-0.233 2.983-0.167 2.45 0.2-0.533 0.333-2.1 0.833-4.7 1.5s-3.466 0.65-2.6-0.05c1.067-0.867 2.683-1.417 4.85-1.65z" clip-rule="evenodd" fill="url(#ex)" fill-rule="evenodd"/>
			<linearGradient id="ey" x1="-42.974" x2="-31.189" y1="5.1079" y2="5.1079" gradientTransform="matrix(-.8888 -.4582 .4582 -.8888 -.00026584 .00019827)" gradientUnits="userSpaceOnUse">
			<stop stop-color="#D03D42" offset="0"/>
			<stop stop-color="#E25F63" offset="1"/>
		</linearGradient>
		<path d="m41.3 10.35c1.733 0.6 2.483 1.6 2.25 3-0.233 1.367-1.333 2.566-3.3 3.6-1.967 1.033-3.65 1.267-5.05 0.7-1.3-0.533-1.817-1.583-1.55-3.15 0.267-1.433 0.983-2.533 2.15-3.3 1.833-1.167 3.667-1.45 5.5-0.85z" clip-rule="evenodd" fill="url(#ey)" fill-rule="evenodd"/>
			<radialGradient id="fa" cx="27.709" cy="17.209" r="10.516" gradientTransform="matrix(.9901 -.1403 -.1425 -1.0056 4.868 34.344)" gradientUnits="userSpaceOnUse">
			<stop stop-color="#FBE6C3" offset="0"/>
			<stop stop-color="#E25F63" offset="1"/>
		</radialGradient>
		<path d="m35.1 11.6c1.633-1.167 3.3-1.55 5-1.15 1.667 0.4 2.433 1.25 2.3 2.55-0.133 1.233-1.066 2.383-2.8 3.45-1.767 1.1-3.317 1.433-4.65 1-1.267-0.367-1.817-1.267-1.65-2.7 0.167-1.333 0.767-2.383 1.8-3.15z" clip-rule="evenodd" fill="url(#fa)" fill-rule="evenodd"/>
			<linearGradient id="fb" x1="-39.554" x2="-29.976" y1="26.134" y2="26.134" gradientTransform="matrix(-.7857 -.6186 .6186 -.7857 -.00016612 -.00032121)" gradientUnits="userSpaceOnUse">
			<stop stop-color="#D03D42" offset="0"/>
			<stop stop-color="#E25F63" offset="1"/>
		</linearGradient>
		<path d="m44.7 4.35c4.233-2.133 7.983-2.283 11.25-0.45 1.3 0.733 2.033 1.567 2.2 2.5 0.166 1-0.367 1.817-1.601 2.45-1.366 0.7-3.166 1.066-5.399 1.1-2.567 0.066-4.8-0.367-6.7-1.3-0.9-0.433-1.333-1.117-1.3-2.05 0.033-1 0.55-1.75 1.55-2.25z" clip-rule="evenodd" fill="url(#fb)" fill-rule="evenodd"/>
			<radialGradient id="fc" cx="41.152" cy="4.707" r="13.329" gradientTransform="matrix(.982 -.1889 -.1919 -.9977 1.792 9.3183)" gradientUnits="userSpaceOnUse">
			<stop stop-color="#FBE6C3" offset="0"/>
			<stop stop-color="#E25F63" offset="1"/>
		</radialGradient>
		<path d="m43.95 4.4c3.934-2.267 7.533-2.6 10.8-1 1.267 0.633 2 1.4 2.2 2.3 0.2 0.966-0.283 1.783-1.45 2.45-1.2 0.667-3.017 1.033-5.45 1.1-2.6 0.1-4.683-0.2-6.25-0.9-1.033-0.434-1.5-1.067-1.4-1.9 0.067-0.8 0.583-1.483 1.55-2.05z" clip-rule="evenodd" fill="url(#fc)" fill-rule="evenodd"/>
			<linearGradient id="fd" x1="-43.757" x2="-34.622" y1="-14.322" y2="-14.322" gradientTransform="matrix(-.9387 -.3448 .3448 -.9387 -.0003413 -.00088921)" gradientUnits="userSpaceOnUse">
			<stop stop-color="#D03D42" offset="0"/>
			<stop stop-color="#E25F63" offset="1"/>
		</linearGradient>
		<path d="m34.8 27.15c2-1.6 3.35-1.583 4.05 0.05 0.733 1.633 0.233 2.883-1.5 3.75-1.5 0.767-2.567 0.533-3.2-0.7-0.633-1.2-0.417-2.233 0.65-3.1z" clip-rule="evenodd" fill="url(#fd)" fill-rule="evenodd"/>
			<radialGradient id="fe" cx="26.039" cy="29.121" r="8.2184" gradientTransform="matrix(.9902 -.1396 -.1418 -1.0053 8.1943 58.112)" gradientUnits="userSpaceOnUse">
			<stop stop-color="#FBE6C3" offset="0"/>
			<stop stop-color="#E25F63" offset="1"/>
		</radialGradient>
		<path d="m34.7 26.95c1.767-1.4 2.95-1.4 3.55 0 0.633 1.433 0.2 2.517-1.3 3.25-1.3 0.667-2.233 0.466-2.8-0.6-0.567-1.033-0.383-1.917 0.55-2.65z" clip-rule="evenodd" fill="url(#fe)" fill-rule="evenodd"/>
			<linearGradient id="ff" x1="-8.4189" x2=".4688" y1="-42.691" y2="-42.691" gradientTransform="matrix(-.9986 .0534 -.0534 -.9986 8.5548e-5 -.00019266)" gradientUnits="userSpaceOnUse">
			<stop stop-color="#D03D42" offset="0"/>
			<stop stop-color="#E25F63" offset="1"/>
		</linearGradient>
		<path d="m10.65 42.2c1-2.1 1.75-2.767 2.25-2 0.467 0.8 0.35 1.816-0.35 3.05-0.6 1.033-1.167 1.333-1.7 0.9-0.567-0.433-0.633-1.083-0.2-1.95z" clip-rule="evenodd" fill="url(#ff)" fill-rule="evenodd"/>
			<radialGradient id="fg" cx="2.1699" cy="42.522" r="4.103" gradientTransform="matrix(.9902 -.14 -.1464 -1.0358 12.178 86.149)" gradientUnits="userSpaceOnUse">
			<stop stop-color="#FBE6C3" offset="0"/>
			<stop stop-color="#E25F63" offset="1"/>
		</radialGradient>
		<path d="m10.55 42.2c0.833-1.733 1.45-2.284 1.85-1.65 0.367 0.667 0.267 1.517-0.3 2.55-0.467 0.867-0.917 1.117-1.35 0.75-0.467-0.367-0.533-0.917-0.2-1.65z" clip-rule="evenodd" fill="url(#fg)" fill-rule="evenodd"/>
			<use transform="matrix(1 0 0 -1 7.3999 .7002)" x="0.007" y="-38.576" width="47.846" height="38.702" enable-background="new" opacity=".2109" xlink:href="#cq"/>
			<use transform="matrix(1 0 0 -1 57.25 61.8)" x="0.015" y="-11.515" width="21.241" height="11.515" enable-background="new" opacity=".2695" xlink:href="#co"/>
		<linearGradient id="fh" x1="47.885" x2="60.139" y1="-108.46" y2="-108.46" gradientTransform="matrix(-.4407 .8977 -.8977 -.4407 .00048369 8.8215e-6)" gradientUnits="userSpaceOnUse">
		<stop stop-color="#242224" offset="0"/>
		<stop stop-color="#27252E" offset=".2118"/>
		<stop stop-color="#302E49" offset=".5765"/>
		<stop stop-color="#32304E" offset=".6353"/>
		<stop stop-color="#617D84" offset="1"/>
	</linearGradient>
	<path d="m70.25 95.45l-0.5 0.45c0.066-0.267 0.184-0.534 0.35-0.801 0.367-0.5 0.817-0.716 1.351-0.649 0.767 0.1 1.25 0.767 1.45 2 0.199-1.634 0-2.717-0.601-3.25-0.533-0.5-1.166-0.5-1.899 0-0.567 0.366-1.067 1.017-1.5 1.95-0.2 0.466-0.351 0.899-0.45 1.3-0.434-1.467-0.434-2.867 0-4.2 0.467-1.366 1.217-2.184 2.25-2.45 0.899-0.233 1.767 0.033 2.6 0.8 0.434 0.4 0.767 0.817 1 1.25-0.066-1.5-0.533-2.483-1.399-2.949l-1.302-0.301 1.35-0.4c1.066-0.134 1.95 0.184 2.649 0.95 0.7 0.767 1.017 1.699 0.95 2.8-0.033 0.533-0.133 1-0.3 1.399 0.767-1.199 1.717-1.666 2.85-1.399 1 0.233 1.634 0.767 1.9 1.6 0.3 0.867 0.283 1.617-0.05 2.25 0.133-0.6-0.117-1.066-0.75-1.399-0.467-0.267-0.95-0.317-1.45-0.15-0.233 0.066-0.667 0.283-1.3 0.65-0.634 0.366-1.05 0.666-1.25 0.899-0.434 0.5-0.717 1.233-0.851 2.2-0.199 1.467 0.084 2.667 0.851 3.6-1.267-0.166-2.367-0.199-3.3-0.1-0.601 0.066-1.317-0.083-2.15-0.45l-1.1-0.55c1.399-2.233 1.949-3.667 1.649-4.3-0.298-0.634-0.648-0.884-1.048-0.75z" clip-rule="evenodd" fill="url(#fh)" fill-rule="evenodd"/>
		<linearGradient id="fi" x1="-89.872" x2="-7.9967" y1="62.875" y2="62.875" gradientTransform="matrix(.1634 -.9866 .9866 .1634 -.00017582 .000375)" gradientUnits="userSpaceOnUse">
		<stop stop-color="#20141B" offset="0"/>
		<stop stop-color="#303B3B" offset="1"/>
	</linearGradient>
	<path d="m55.7 65.75c-0.233 3.533-1.167 6.9-2.8 10.1-0.301 0.567-0.983 1.684-2.051 3.351-0.866 1.399-1.483 2.566-1.85 3.5-1.033 2.733-1.4 5.383-1.1 7.95 0.233 1.733 0.716 3.483 1.449 5.25l-3.148-0.151c-0.133 0-0.25-0.517-0.35-1.55-0.067-0.767-0.1-1.351-0.1-1.75 0-1.267 0.1-2.5 0.3-3.7 0.5-2.667 1.483-5.233 2.95-7.7 1.2-1.7 2.1-2.983 2.7-3.85 0.233-0.367 0.666-1.134 1.3-2.3 0.7-1.334 1.434-3.467 2.2-6.4l0.5-2.75z" clip-rule="evenodd" fill="url(#fi)" fill-rule="evenodd"/>
		<linearGradient id="fj" x1="-90.693" x2="-26.287" y1="68.809" y2="68.809" gradientTransform="matrix(.2567 -.9665 .9665 .2567 -.00035042 .00047624)" gradientUnits="userSpaceOnUse">
		<stop stop-color="#20141B" offset="0"/>
		<stop stop-color="#303B3B" offset="1"/>
	</linearGradient>
	<path d="m44.85 95.7c-2.367-4.533-1.55-8.684 2.45-12.45 1.267-1.167 2.767-2.217 4.5-3.15l2.25-1.1-2.2 1.3c-1.666 1.134-3.083 2.334-4.25 3.601-3.667 4.066-3.966 8.083-0.899 12.05l-1.851-0.251z" clip-rule="evenodd" fill="url(#fj)" fill-rule="evenodd"/>
	<linearGradient id="fl" x1="24.704" x2="32.633" y1="95.228" y2="79.056" gradientUnits="userSpaceOnUse">
		<stop stop-color="#617D84" offset="0"/>
		<stop stop-color="#32304E" offset=".3647"/>
		<stop stop-color="#302E49" offset=".4235"/>
		<stop stop-color="#27252E" offset=".7882"/>
		<stop stop-color="#242224" offset="1"/>
	</linearGradient>
	<path d="m19.5 91.1c-0.433-0.899-0.45-2.017-0.05-3.35s1.1-2.283 2.1-2.85c1.2-0.7 2.333-0.317 3.4 1.149-0.333-0.633-0.583-1.383-0.75-2.25-0.333-1.733-0.034-3.184 0.9-4.35 0.933-1.167 2.05-1.816 3.35-1.95 0.633-0.066 1.183-0.017 1.65 0.15l-1.9 0.85c-1.133 1.066-1.4 2.816-0.8 5.25 0.233-0.634 0.567-1.25 1-1.85 0.934-1.2 2.017-1.767 3.25-1.7 1.567 0.1 2.684 1.033 3.35 2.8 0.6 1.566 0.733 3.4 0.4 5.5-0.1-0.5-0.3-1.05-0.6-1.65-0.6-1.166-1.433-2.017-2.5-2.55-1.066-0.533-1.966-0.3-2.7 0.7-0.833 1.167-1.133 3-0.9 5.5 0.066-0.533 0.2-1.083 0.4-1.65 0.367-1.166 0.833-1.883 1.4-2.149 0.767-0.367 1.483-0.367 2.15 0 0.333 0.2 0.6 0.434 0.8 0.7-0.3-0.067-0.65-0.051-1.05 0.05-0.767 0.233-1.35 0.833-1.75 1.8-0.733 1.733 0.067 4.184 2.4 7.35-1.633 1.2-3.083 1.717-4.35 1.551-0.8-0.101-1.784-0.101-2.95 0l-1.5 0.149c0.267-0.366 0.517-0.866 0.75-1.5 0.467-1.267 0.617-2.583 0.45-3.95-0.2-1.566-0.483-2.699-0.85-3.399-0.267-0.601-0.717-1.101-1.35-1.5-1.033-0.767-1.983-0.684-2.85 0.25-0.4 0.399-0.667 0.967-0.8 1.7-0.1 0.533-0.133 0.932-0.1 1.199z" clip-rule="evenodd" fill="url(#fl)" fill-rule="evenodd"/>
		<linearGradient id="fm" x1="-72.917" x2="-31.41" y1="91.877" y2="91.877" gradientTransform="matrix(.3584 -.9336 .9336 .3584 -.00021467 .00023764)" gradientUnits="userSpaceOnUse">
		<stop stop-color="#20141B" offset="0"/>
		<stop stop-color="#303B3B" offset="1"/>
	</linearGradient>
	<path d="m59.9 97.15c0.366-1.4 0.933-2.95 1.699-4.65 1.567-3.434 3.434-5.967 5.601-7.6l-2.65 3.149c-1.833 2.767-2.899 5.917-3.2 9.45l-1.45-0.349z" clip-rule="evenodd" fill="url(#fm)" fill-rule="evenodd"/>
		<linearGradient id="fn" x1="-90.403" x2="-63.703" y1="30.637" y2="30.637" gradientTransform="matrix(-.1056 -.9944 .9944 -.1056 -.0001663 .00079486)" gradientUnits="userSpaceOnUse">
		<stop stop-color="#20141B" offset="0"/>
		<stop stop-color="#303B3B" offset="1"/>
	</linearGradient>
	<path d="m37.875 79.225l1.725 3.925c1.667 4.5 2.533 8.649 2.6 12.449l-2.2 0.301c0.367-1.2 0.517-2.867 0.45-5-0.088-3.753-0.946-7.645-2.575-11.675z" clip-rule="evenodd" fill="url(#fn)" fill-rule="evenodd"/>
	<linearGradient id="fo" x1="65.044" x2="60.625" y1="83.219" y2="93.771" gradientUnits="userSpaceOnUse">
		<stop stop-color="#20141B" offset="0"/>
		<stop stop-color="#303B3B" offset="1"/>
	</linearGradient>
	<path d="m60.2 97.25l-0.851-0.3c0.101-2.101 0.5-3.917 1.2-5.45l0.75-1.3c-0.614 1.149-0.98 2.616-1.1 4.399-0.065 1.001-0.065 1.884 1e-3 2.651z" clip-rule="evenodd" fill="url(#fo)" fill-rule="evenodd"/>
		<radialGradient id="fp" cx="47.4" cy="92.85" r="69.438" gradientTransform="matrix(1 0 0 -.2653 0 117.49)" gradientUnits="userSpaceOnUse">
		<stop stop-color="#228B8F" offset=".4235"/>
		<stop stop-color="#258D91" offset=".651"/>
		<stop stop-color="#309396" offset=".8471"/>
		<stop stop-color="#3E9A9D" offset="1"/>
	</radialGradient>
	<path d="m69.65 98.75c9.3 2.434 16.183 6.15 20.649 11.15 0.101 1.767-4.383 3.033-13.45 3.8-6.966 0.566-13.899 0.75-20.8 0.55-9.867-0.2-17.283-0.384-22.25-0.55-8.566-0.3-15.983-0.75-22.25-1.351-6.4-0.699-9.283-1.5-8.65-2.399 2.2-3.101 6.733-6.167 13.6-9.2 9.2-4.066 19.033-5.816 29.5-5.25 9.435 0.533 17.317 1.616 23.651 3.25z" clip-rule="evenodd" fill="url(#fp)" fill-rule="evenodd"/>
		<use transform="matrix(1 0 0 -1 30.6 96.85)" x="-0.105" y="-3.668" width="8.797" height="3.684" enable-background="new" opacity=".3711" xlink:href="#fr"/>
		<use transform="matrix(1 0 0 -1 40.2 96.5)" x="-0.163" y="-5.152" width="13.281" height="5.235" enable-background="new" opacity=".3711" xlink:href="#eq"/>
		<use transform="matrix(1 0 0 -1 48.3 102.2)" x="-0.023" y="-3.408" width="4.631" height="3.372" enable-background="new" opacity=".3711" xlink:href="#dp"/>
		<use transform="matrix(1 0 0 -1 53.65 100.8)" x="-0.031" y="-5.266" width="7.631" height="5.337" enable-background="new" opacity=".3711" xlink:href="#cx"/>
		<use transform="matrix(1 0 0 -1 57.85 97.3)" x="0.05" y="-2.738" width="9.401" height="2.738" enable-background="new" opacity=".3711" xlink:href="#cw"/>
		<use transform="matrix(1 0 0 -1 18.9 99.1)" x="-0.193" y="-4.155" width="8.919" height="4.191" enable-background="new" opacity=".3711" xlink:href="#cp"/>
</svg>
